<?xml version="1.0" encoding="utf-8"?>
<!DOCTYPE svg PUBLIC "-//W3C//DTD SVG 1.0//EN" "http://www.w3.org/TR/2001/REC-SVG-20010904/DTD/svg10.dtd">
<svg version="1.0" xmlns="http://www.w3.org/2000/svg" width="2048px" height="2048px" viewBox="0 0 2048 2048" preserveAspectRatio="xMidYMid meet">
 <g fill="#000000">
  <path d="M971.5 1773.9 c-161.9 -6.9 -318.3 -65.4 -445.2 -166.5 -58 -46.3 -111 -103.6 -152.7 -165.2 -62.1 -91.9 -103.4 -198.7 -118.5 -306.7 -1.2 -8.2 -2.4 -16.1 -2.6 -17.5 -0.3 -1.4 -1.4 -13.5 -2.5 -27 -2.2 -27.8 -2.8 -85.5 -1 -112.2 15.2 -227 134.8 -434.2 325 -563.1 73 -49.4 155.7 -86.6 240 -107.7 72.8 -18.3 147.2 -26.2 219.3 -23.2 16.1 0.7 38 2.2 48.7 3.3 10.7 1.2 22.3 2.1 25.8 2 11.5 -0.3 62.1 9.1 96.8 17.9 85.7 21.8 176.6 63.8 247.9 114.5 118.1 83.9 205.8 192.9 260.2 323.5 62.7 150.3 73.4 323.1 29.8 479.4 -39.4 141.2 -116.6 263.7 -228 361.6 -51.8 45.5 -117.1 87.8 -179.9 116.5 -35.5 16.2 -76.3 31.5 -109.6 41 -80.6 23.1 -166.9 33.1 -253.5 29.4z m65.5 -53.9 c79.6 -3.9 157.4 -20.2 228.1 -47.7 l16.6 -6.5 -2.9 -8.1 c-4.6 -12.9 -6 -20.3 -6.7 -34.1 l-0.6 -13 -8.6 -1.2 c-25.8 -3.8 -51 -20.1 -65.6 -42.7 -6.8 -10.4 -19.1 -36.4 -21.2 -44.8 -4.3 -16.9 -3.7 -33.6 1.8 -56.4 6.1 -24.9 14.1 -44.7 24.9 -62 l5 -8 -11.7 -5.6 c-6.4 -3 -16.2 -8.4 -21.8 -11.8 -12.1 -7.3 -20.7 -10.4 -36.3 -13.1 -17.9 -3.2 -26.9 -5 -34.5 -7 -3.8 -1.1 -10.4 -2.4 -14.5 -3 -4.1 -0.6 -12.4 -2.1 -18.5 -3.2 -10.8 -2 -12.4 -2.1 -80 -1.2 -95.6 1.2 -105.5 1.1 -126.8 -1.5 -17.3 -2.2 -18.2 -2.2 -33.8 -0.6 -8.9 0.9 -18.9 2.2 -22.3 3.1 -7.9 1.9 -38.6 3.8 -50.1 3.1 -4.9 -0.3 -11.1 -1.3 -13.7 -2.2 -6.7 -2.4 -13.5 -8.8 -16.9 -16 -2.6 -5.4 -2.9 -7.1 -2.9 -16 0 -8.9 0.3 -10.7 2.8 -16 1.6 -3.3 4.5 -7.5 6.6 -9.3 7.9 -6.9 13.7 -8.4 37.8 -9.7 6.4 -0.4 15.9 -1.5 21 -2.5 5.1 -1.1 15 -2.5 22 -3.1 l12.8 -1.2 0.5 -3.1 c0.3 -1.7 1.6 -11 3 -20.7 4.2 -30.1 13.2 -56.2 34 -98.9 7.9 -16.2 15.5 -32.3 17 -35.8 1.4 -3.5 10.8 -30 20.9 -59 18.4 -52.7 25.8 -77.4 31.5 -105.2 3.6 -18 12.4 -70 11.8 -70.6 -0.2 -0.2 -6 0.9 -12.8 2.5 -28.7 6.9 -47.1 8.9 -80.4 9.2 -28.5 0.2 -31 -0.2 -40 -7 -4.1 -3.1 -6.1 -5.7 -8.7 -10.8 -3 -6.2 -3.3 -7.4 -3.3 -16.3 0.1 -8.1 0.4 -10.3 2.7 -15.1 4.8 -10.4 13.6 -17 25.4 -18.9 3.3 -0.6 12.9 -1 21.4 -1 18.3 0 36.3 -2 55.5 -6.2 17.8 -3.8 26.7 -6.6 40.5 -12.8 15 -6.7 20.8 -10.7 32.5 -22.5 35.6 -35.6 69.2 -82.4 89.1 -124 16.9 -35.4 28.7 -61.7 29.9 -66.8 0.5 -2 0 -2.6 -3.7 -4.3 -4.2 -1.9 -16.2 -9 -32.7 -19.6 -14 -8.8 -33.1 -29.3 -43.9 -46.9 -7.9 -12.9 -15.7 -34.4 -18.7 -51.3 -2.3 -13.4 -2 -39.3 0.6 -54.7 3.6 -21.6 13.9 -52.9 23.5 -72.1 2.4 -4.8 4.4 -9 4.4 -9.3 0 -0.3 -10.3 -0.5 -22.9 -0.5 l-23 0 -1.5 5.3 c-5.5 18.8 -36.4 69.4 -53 86.6 -20 20.6 -57.4 52.2 -66.4 55.8 -2.6 1.1 -4.4 2.6 -4.7 3.8 -0.3 1.1 -1.6 10.6 -3.1 21 -3.4 25.3 -17 95.9 -21.5 112.5 -1.2 4.1 -5.6 18.5 -9.9 32 -4.3 13.5 -11 36.4 -15 50.8 -3.9 14.5 -8.8 31.1 -10.9 37 -2.1 5.9 -7.1 19.7 -11 30.7 -16.1 44.9 -44.7 117.7 -64.8 164.5 -13.9 32.6 -32.9 69.4 -47.1 91.6 -7.7 12 -8.8 15.3 -11.1 32.5 -2 14.7 -2.1 20.5 -2.1 89.5 0 73.4 0 73.9 -2.6 93.4 -1.4 10.7 -4.1 26.7 -6 35.5 -1.9 8.8 -5.3 24.5 -7.5 34.9 -4.9 22.8 -7.6 31.9 -21.2 71.6 -12 34.9 -17 48.1 -19.7 52.6 -5.8 9.3 -13.7 13.4 -26 13.4 -4.7 0 -10.2 -0.5 -12.2 -1 -5.7 -1.6 -11.9 -6.9 -15 -12.9 -2.5 -4.7 -2.8 -6.4 -2.8 -14.8 0 -8.6 0.3 -10.3 4.1 -20.1 2.2 -5.9 8.1 -22.4 12.9 -36.7 4.9 -14.3 10.5 -30.5 12.4 -36 1.9 -5.5 5 -17.4 7 -26.5 2 -9.1 5.4 -24.4 7.6 -34 2.1 -9.6 5.1 -26 6.5 -36.4 2.5 -18.7 2.5 -19.2 2.5 -93 0 -67.8 0.2 -75.5 2 -90.1 2.4 -19.5 2.5 -20.1 5.6 -29.6 2.5 -7.6 5 -12.3 19.1 -35.5 10.7 -17.7 27.1 -50.2 38.1 -75.9 12.6 -29.4 46.7 -115.3 54.6 -137.5 3.7 -10.2 10 -27.7 14.1 -39 4.1 -11.3 9.5 -28.1 12.1 -37.5 8.7 -32.2 11.5 -42.1 18.3 -63.5 10.8 -33.6 10.7 -33.2 20.5 -84.6 11.7 -61 13.5 -77.1 13.7 -126.4 0.2 -33.8 -0.6 -51 -2.2 -51 -3.6 0 -51.7 18.2 -75.4 28.5 -27 11.8 -83.5 42.2 -87.6 47.1 -1.1 1.4 -24.9 48.3 -59.4 117.4 -28.1 56.2 -33.2 65.3 -57.9 102.5 -12.8 19.2 -27.2 41.2 -32 48.8 -4.8 7.6 -16.9 26 -26.9 41 -20.1 29.9 -30.2 46.5 -44.2 72.2 -48.6 89.2 -53.8 99.6 -67.1 132.5 -10.4 25.9 -32.1 90.2 -36.5 108.4 -3.5 14.7 -3.5 16.9 0 44.4 8.1 61.6 24.7 123.1 48.8 180 9.3 21.9 28.2 59.4 40.5 80.2 9 15.2 29.3 46.6 35 54 1.1 1.4 5.1 6.8 9 12 44 58.7 102.8 114.8 163.8 156.2 46.9 31.9 90 54.7 143 75.8 88.5 35.2 196.1 53.5 289 49z m313.3 -87.2 c89.6 -49.4 164.6 -114.2 224.8 -194.1 11.1 -14.7 34.5 -48.7 33.5 -48.7 -0.8 0 -18.2 20.4 -36.1 42.5 -34.5 42.4 -43.1 52.1 -60.2 67.7 -17.7 16 -77.3 63.5 -91.6 72.9 -25.5 16.8 -51.3 27.2 -81.4 33 l-6.3 1.2 0 7.6 c0 4.2 0.5 9.4 1 11.6 1.5 5.4 4.1 12.5 4.7 12.5 0.2 0 5.5 -2.8 11.6 -6.2z m-84.5 -294.2 c2.6 -1.3 6.7 -3 9 -3.7 3.9 -1.1 5.3 -2.6 13.7 -13.7 l9.4 -12.5 -6.6 -7.1 c-8.8 -9.5 -14.7 -17.5 -18.3 -25.1 -5.8 -12.1 -6.2 -15.7 -6.9 -55.3 l-0.6 -36.4 -10 15.4 c-5.5 8.4 -12.5 18.5 -15.6 22.4 l-5.7 7.1 -1.2 18.4 c-1.5 24 -5.7 53 -10.5 72 -0.6 2.3 -0.1 2.8 5.2 5.4 5.6 2.8 32.5 15.3 33.1 15.4 0.1 0.1 2.4 -1 5 -2.3z m199.7 -14.5 c9.4 -2.5 32.1 -9.8 49.5 -15.8 1.9 -0.6 -8.6 -4.7 -19.9 -7.7 l-8.4 -2.2 -13.1 6.7 c-17.3 8.8 -24 10.3 -42.5 9.6 -13.6 -0.5 -23.8 -2.2 -34 -5.7 l-5.4 -1.8 -11.4 4.3 c-16.4 6.3 -18.6 7.5 -19.5 10.9 -0.4 1.7 -0.6 3.1 -0.4 3.3 0.7 0.7 56.3 2.1 74.1 1.8 17.9 -0.2 19.7 -0.4 31 -3.4z m199 -43.4 c26.1 -65.2 41.6 -132.4 47.6 -205.7 2.9 -34.6 1.3 -89.6 -3.7 -128.5 -11.6 -91.6 -43.1 -183.6 -90 -262.5 l-6.5 -11.1 -10.6 11.1 c-15.4 16.1 -25.5 22.7 -44.5 29.1 -15.9 5.3 -32.3 5 -62.9 -1.2 -24.7 -5 -46.7 -12.8 -61.4 -21.9 -3.8 -2.3 -14.9 -9 -24.5 -14.7 -25.5 -15.3 -30 -20.9 -30 -37.9 0 -13.5 6.8 -24.8 17.7 -29.5 7.5 -3.3 19.2 -3.7 27.3 -0.9 7.5 2.5 20.6 9.4 36.5 19 14.8 9.1 21.3 12.2 32.5 15.8 9.3 3 33.8 8.2 38.3 8.2 4.2 -0.1 10.8 -4 17.4 -10.2 7.5 -7.2 10.7 -12.3 13.3 -20.9 1 -3.3 2.6 -7.2 3.5 -8.5 1.6 -2.5 1.5 -2.7 -2.4 -7.7 -21.2 -27.6 -57.6 -65.3 -87.4 -90.9 -59.3 -50.9 -119.3 -88.1 -191.5 -118.7 -51.6 -21.9 -109.8 -38.2 -168.2 -47.1 -6.9 -1 -13.8 -2.2 -15.5 -2.5 -3 -0.6 -3.1 -0.4 -12.2 14.7 -10.1 16.7 -17 32.8 -22.9 53 -7.6 26.6 -8.3 43.5 -2.5 60.6 4.7 14.2 7.7 19.6 16.1 30.1 10.8 13.2 13.7 15.8 28 24.7 20 12.4 26.4 15.5 53.5 26 7.9 3.1 21.9 10.1 28.1 14.1 2 1.3 2.2 1.1 4.2 -4.4 8 -21.7 29.7 -39 54.9 -43.9 14.5 -2.7 28.4 -1.3 46.8 4.8 23.2 7.7 36.9 15.9 51.5 30.8 8 8.2 12.6 15.2 16.8 25.2 2.2 5.4 2.6 7.8 2.6 17.3 0.1 9.9 -0.2 11.6 -2.5 16.5 -3.4 7.1 -9 12.6 -15.9 15.9 -4.6 2.2 -7.2 2.7 -16.2 2.9 -12.4 0.4 -18 -0.8 -29.9 -6.8 -6.8 -3.5 -26.3 -10.1 -29.3 -10 -0.6 0.1 -2.6 1.4 -4.4 2.9 l-3.4 2.9 4.6 5.8 c2.5 3.3 8.6 13.6 13.6 22.9 16.3 30.8 18.4 39.6 18.4 80 0.1 31.3 -0.8 37.5 -8.1 60 -8.7 26.8 -23.5 60.2 -36.2 81.5 -5.6 9.4 -6.1 10.6 -4.6 11.5 13.6 7.9 34.5 24.6 49.4 39.4 4.8 4.7 14.6 15.8 21.8 24.6 7.2 8.8 19 23.1 26.2 31.8 7.1 8.7 27.1 30.3 44.3 47.9 86.8 88.9 118.9 118.4 174.8 160.5 64.6 48.8 72 55.2 79.5 70.3 1.8 3.6 4.5 8.7 5.9 11.4 2.4 4.7 2.6 5.8 2.6 19.5 0.1 10.8 0.3 14.1 1.1 12.8 0.6 -1 4.4 -10 8.4 -20z m-507.7 3.6 c3.7 -20.1 5 -31.1 6.2 -52.3 1.5 -29 3.7 -35.9 14.9 -48.3 5.9 -6.5 28 -38.4 28.8 -41.7 0.3 -1.2 -1 -2 -5.4 -3.4 -12.9 -4 -27.6 -13.7 -37.8 -24.8 -15.3 -16.8 -24.3 -32.9 -33.6 -60 -9.5 -27.4 -10 -29.5 -10.6 -46.3 -0.6 -16.8 0.9 -26.8 6.7 -44.7 6.7 -20.6 23.1 -49.5 38.2 -67.5 3.8 -4.6 9.2 -12 12 -16.5 2.8 -4.6 9.7 -15.5 15.4 -24.4 16 -24.9 28.7 -50.6 38.3 -77.4 7.9 -22.1 8.4 -25.2 8.5 -47.5 0 -24.6 -0.6 -27.3 -11.2 -48 l-7.7 -15 -14.5 -14.6 c-14.3 -14.3 -14.7 -14.6 -27.7 -21.2 -7.2 -3.7 -13.4 -6.7 -13.7 -6.7 -0.2 0 -1 1.7 -1.7 3.8 -2.6 8 -19.5 46 -31.4 70.7 -14 29.1 -43.4 73.8 -67.4 102.5 -7.5 9 -31.1 34.7 -37.5 41 -4.4 4.2 -4.6 4.7 -4.6 10 0 13.6 -3.7 41.3 -12.1 91.5 -8.5 50.9 -15 74.6 -39.4 144.5 -10.3 29.4 -20.2 57.3 -22.1 62 -1.9 4.7 -10 21.8 -17.9 38 -17.6 36.2 -26.3 60.4 -29 80.9 -0.9 6.7 -1.4 12.6 -1.1 12.9 0.3 0.3 23.7 -0.1 51.8 -0.8 38.3 -0.9 61.3 -1 90.8 -0.2 42 1.1 43.9 1.3 74.5 7.9 27 5.9 33.1 7.2 35.6 7.2 2.5 0.1 2.6 -0.2 4.7 -11.6z m198.4 -39.4 c16 -6.4 23.2 -7.9 37.3 -7.9 10.2 0 13.7 0.4 20.6 2.5 4.6 1.4 11.1 3.2 14.4 4.1 l6 1.6 12 -6.6 c14.8 -8.1 20.6 -10.4 30.7 -11.8 l8 -1.1 -5.9 -3.6 c-3.2 -1.9 -13.9 -9 -23.9 -15.7 -22.6 -15.3 -36.8 -23.4 -61.6 -35.2 -19.1 -9.1 -19.9 -9.4 -37.9 -13.1 -10.1 -2.1 -21 -4.6 -24.2 -5.4 l-5.9 -1.6 0.7 2.2 c0.4 1.2 1 22.7 1.4 47.7 l0.6 45.5 3 4.1 3 4.2 5.7 -2.9 c3.1 -1.6 10.3 -4.7 16 -7z m-1015.2 -414.9 c32.8 -60.7 37.8 -69 69.9 -117.7 31 -47 69.7 -106.1 74.7 -114.2 2.2 -3.6 10.9 -20.1 19.3 -36.6 l15.2 -30 -17.8 18.1 c-80.4 81.5 -138.7 180.2 -170.8 289 -4.3 14.3 -5 17.3 -4.1 16.3 0.2 -0.2 6.3 -11.4 13.6 -24.9z m540.1 -442.6 c7.7 -8.1 30.1 -41.5 28.7 -42.9 -0.5 -0.5 -28.9 4.3 -44.2 7.5 -5.4 1.1 -10 2 -10.3 2 -0.2 0 -0.2 0.8 0.1 1.8 0.7 2.1 3.6 40.6 3.6 47.4 l0 5 7.8 -7 c4.2 -3.8 10.6 -10.1 14.3 -13.8z"/>
 </g>
 <g fill="#ffffff">
  <path d="M0 1024 l0 -1024 1024 0 1024 0 0 1024 0 1024 -1024 0 -1024 0 0 -1024z m1037.5 747 c104.6 -4.5 199.3 -27.2 294.1 -70.5 62.8 -28.7 128.1 -71 179.9 -116.5 95.2 -83.7 165.5 -185.4 208.8 -302 46.5 -125.2 57.5 -259 32.1 -391 -28.7 -149.3 -104.6 -288 -215.3 -393.4 -89.9 -85.6 -196.8 -146.9 -316.6 -181.5 -36.9 -10.7 -93.6 -22 -113 -22.6 -5.5 -0.1 -18.5 -1.2 -29 -2.4 -56.5 -6.2 -119.2 -4.8 -181 4 -114.9 16.3 -224.6 58.6 -320.5 123.6 -100.8 68.3 -183.2 159.8 -240.4 266.9 -48.8 91.3 -77.6 192.4 -84.6 296.2 -1.7 26.2 -1.2 78.4 1 106.2 1.1 13.5 2.2 25.6 2.5 27 0.2 1.4 1.4 9.3 2.6 17.5 27.4 195.2 135.7 374.1 298.4 492.7 77.9 56.8 171.9 100.7 264.1 123.3 73.5 18.1 145.5 25.5 216.9 22.5z"/>
  <path d="M983.5 1723.3 c-82.1 -3.2 -166.7 -20.7 -238.5 -49.3 -86.9 -34.6 -160 -80.8 -227.8 -144 -25.7 -23.9 -57.5 -59.4 -79 -88 -3.9 -5.2 -7.9 -10.6 -9 -12 -1 -1.4 -7 -10.1 -13.3 -19.5 -54.6 -81.7 -91 -173.1 -107.4 -270.5 -2.9 -17 -5.5 -38.3 -6.1 -50 -0.6 -10.7 -0.4 -12.4 2.5 -24.6 4.4 -18.2 26.1 -82.5 36.5 -108.4 13.3 -32.9 18.5 -43.3 67.1 -132.5 14 -25.7 24.1 -42.3 44.2 -72.2 10 -15 22.1 -33.4 26.9 -41 4.8 -7.6 19.2 -29.6 32 -48.8 24.7 -37.2 29.8 -46.3 57.9 -102.5 34.5 -69.1 58.3 -116 59.4 -117.4 4.8 -5.8 64.8 -37.4 96.7 -50.9 25.9 -11 71.8 -27.6 73 -26.5 0.1 0.2 0.7 8.6 1.2 18.8 1.2 21.2 0 84 -1.8 96.5 -4 28.9 -5.8 39.6 -11.6 70 -9.8 51.2 -9.7 50.9 -20.5 84.5 -6.8 21.4 -9.6 31.3 -18.3 63.5 -2.6 9.4 -8 26.2 -12.1 37.5 -4.1 11.3 -10.4 28.8 -14.1 39 -7.9 22.2 -42 108.1 -54.6 137.5 -11 25.7 -27.4 58.2 -38.1 75.9 -14.1 23.2 -16.6 27.9 -19.1 35.5 -3.1 9.5 -3.2 10.1 -5.6 29.6 -1.8 14.6 -2 22.3 -2 90.1 0 73.8 0 74.3 -2.5 93 -1.4 10.4 -4.4 26.8 -6.5 36.4 -2.2 9.6 -5.6 24.9 -7.6 34 -2 9.1 -5.1 21 -7 26.5 -1.9 5.5 -7.5 21.7 -12.4 36 -4.8 14.3 -10.7 30.8 -12.9 36.7 -5.2 13.6 -5.6 20.8 -1.3 28.9 9.6 18.5 35.9 18.7 47.2 0.5 2.7 -4.5 7.7 -17.7 19.7 -52.6 13.6 -39.7 16.3 -48.8 21.2 -71.6 2.2 -10.4 5.6 -26.1 7.5 -34.9 1.9 -8.8 4.6 -24.8 6 -35.5 2.6 -19.5 2.6 -20 2.6 -93.4 0 -69 0.1 -74.8 2.1 -89.5 2.3 -17.2 3.4 -20.5 11.1 -32.5 14.2 -22.2 33.2 -59 47.1 -91.6 20.1 -46.8 48.7 -119.6 64.8 -164.5 3.9 -11 8.9 -24.8 11 -30.7 2.1 -5.9 7 -22.5 10.9 -37 4 -14.4 10.7 -37.3 15 -50.8 4.3 -13.5 8.7 -27.9 9.9 -32 4.5 -16.6 18.1 -87.2 21.5 -112.5 1.5 -10.4 2.8 -19.9 3.1 -21 0.3 -1.2 2.1 -2.7 4.7 -3.8 9 -3.6 46.4 -35.2 66.4 -55.8 16.6 -17.2 47.5 -67.8 53 -86.6 l1.5 -5.3 27.9 0 27.8 0 -6.3 12.3 c-7.1 13.7 -14.8 33.7 -19.9 51.4 -9.3 32.2 -10.1 62.7 -2.5 88.8 3.2 10.9 10.4 27.8 15.1 35.4 10.8 17.6 29.9 38.1 43.9 46.9 18.6 11.9 24.7 15.5 31.4 18.9 3.9 1.9 7.1 3.7 7.3 3.8 0.6 0.6 -6.9 19.5 -13.2 33.1 -21.5 47 -22.9 49.7 -31.9 65.4 -19.3 33.7 -48.2 71.5 -76.2 99.5 -11.7 11.8 -17.5 15.8 -32.5 22.5 -13.8 6.2 -22.7 9 -40.5 12.8 -19.2 4.2 -37.2 6.2 -55.5 6.2 -24 0 -32.1 2.1 -40.3 10.3 -13.1 13.1 -11.7 34.8 2.8 45.8 8.7 6.5 11.8 7.1 37 7 31.5 -0.2 55.9 -3.4 87.5 -11.6 5.2 -1.3 9.6 -2.2 9.9 -1.9 0.6 0.6 -8.4 54.9 -12.6 75.9 -5.9 29.6 -12.9 53.3 -31.9 107.7 -10.1 29 -19.5 55.5 -20.9 59 -1.5 3.5 -9.1 19.6 -17 35.8 -20.8 42.7 -29.8 68.8 -34 98.9 -1.4 9.7 -2.7 19 -3 20.7 l-0.5 3.1 -12.8 1.2 c-7 0.6 -16.9 2 -22 3.1 -5.1 1 -14.6 2.1 -21 2.5 -17 0.9 -25.7 2.2 -30.2 4.5 -15.2 7.7 -21.3 25.4 -14.1 40.5 5.2 11.1 14.2 16.9 28.1 18.1 8.7 0.8 39 -1.2 46.5 -3 3.3 -0.8 14 -2.3 23.9 -3.2 17.8 -1.7 17.9 -1.7 37.5 0.6 23.2 2.7 28.3 2.8 124.6 1.6 70.6 -0.9 72.2 -0.8 83 1.2 6.1 1.1 14.4 2.6 18.5 3.2 4.1 0.6 10.7 1.9 14.5 3 7.6 2 16.6 3.8 34.5 7 15.6 2.7 24.2 5.8 36.3 13.1 5.6 3.5 16.1 9.1 23.4 12.6 l13.2 6.3 -6 9.3 c-12.1 18.6 -20.6 39 -27 65.2 -4.2 17.4 -5.3 27.6 -3.9 38.7 1.4 11.9 4.4 20.7 12.6 37.1 11.4 22.7 18.8 32.5 32.7 43 14 10.7 28 16.8 43.6 19.1 l8.6 1.2 0.7 13.5 c0.7 14.5 2.4 22.6 8.1 37.7 l3.4 9.2 -17.6 6.9 c-88 34.5 -192 52.1 -285.6 48.4z"/>
  <path d="M1334.2 1639.3 c-3.4 -9.3 -4.1 -13.2 -4.3 -24.3 l-0.3 -10.5 6 -1.2 c25.5 -5.4 38.5 -9.7 57.1 -18.9 19.5 -9.7 33.2 -19.2 70.3 -48.8 55 -44 60.3 -49.3 106.7 -106.4 9.8 -12 24.5 -29.6 32.6 -38.9 27.3 -31.4 35.5 -44.1 41.8 -64.6 1.7 -5.6 4.1 -12 5.2 -14.2 1.9 -3.5 2.2 -6 2.5 -19.5 0.3 -15.2 0.3 -15.6 -2.3 -20.5 -1.5 -2.7 -4.2 -7.9 -6 -11.5 -7.5 -15.1 -14.9 -21.5 -79.5 -70.3 -55.9 -42.1 -88 -71.6 -174.8 -160.5 -17.2 -17.6 -37.2 -39.2 -44.3 -47.9 -7.2 -8.7 -19 -23 -26.2 -31.8 -15.2 -18.4 -25.6 -29.1 -41.8 -42.7 -12.9 -10.7 -22.2 -17.4 -28.9 -20.8 -2.5 -1.2 -4.6 -2.4 -4.8 -2.5 -0.2 -0.2 3.2 -6.1 7.4 -13.2 13.9 -22.9 28.6 -55.6 37.7 -83.8 7.2 -22 8.2 -29 8.1 -57 -0.1 -37.2 -2.4 -46.9 -18.9 -77.8 -5.1 -9.7 -11.5 -20.1 -15.1 -24.5 l-6.1 -7.7 3.1 -1.9 c1.7 -1 4.4 -2.9 6 -4.3 2.3 -1.9 3.5 -2.2 6.5 -1.7 8.1 1.5 23.8 6.7 31 10.4 11.2 5.6 17.9 7.3 27 6.8 13.3 -0.6 23.4 -7.2 29 -18.8 2.2 -4.6 2.6 -6.8 2.5 -13.5 -0.1 -13.3 -6.6 -26.4 -19.4 -39.5 -14.7 -15 -28.2 -23.1 -51.8 -30.9 -16.5 -5.5 -28.6 -7 -39.8 -4.8 -23.3 4.4 -41.4 17.2 -52.2 36.7 -1.6 3 -3.5 7.3 -4.2 9.5 -0.7 2.2 -1.6 4.4 -2 4.9 -0.5 0.4 -6.6 -2.4 -13.7 -6.2 -7 -3.9 -16.8 -8.7 -21.8 -10.6 -26.9 -10.4 -33.4 -13.6 -53.5 -26 -14.3 -8.9 -17.2 -11.5 -28 -24.7 -8.4 -10.5 -11.3 -15.9 -16.2 -30.1 -2.8 -8.2 -3.2 -10.9 -3.6 -22.8 -0.6 -20.8 3.8 -41.3 15.1 -69.4 5.1 -12.8 22.4 -43.2 25.1 -44.2 0.7 -0.3 2.8 0.2 4.8 1 1.9 0.8 9.6 2.4 16.9 3.5 129.2 19.4 250.4 73.8 350.5 157.4 26.9 22.4 49.4 44.1 73.8 71.2 10 11.1 29.6 34.9 29.6 36 0 0.3 -1.2 2.3 -2.6 4.4 -1.4 2.1 -3.3 6.6 -4.4 10 -2.6 8.6 -5.8 13.6 -13.3 20.9 -11.5 11 -16.5 12 -38.9 7.6 -23.9 -4.6 -34.8 -8.8 -55.3 -21.4 -15.9 -9.7 -29.1 -16.5 -36.5 -19 -11.1 -3.7 -22.2 -1 -30.4 7.5 -11.1 11.3 -11.3 28.4 -0.7 39.6 3 3 10.9 8.5 22.1 15.2 9.6 5.7 20.7 12.4 24.5 14.7 14.7 9.1 36.7 16.9 61.4 21.9 19 3.9 33.8 5.5 42 4.7 12.4 -1.3 30.7 -8.6 42.6 -17.1 6 -4.3 19.8 -18 26.7 -26.5 2 -2.4 3.9 -4.2 4.1 -4 0.3 0.3 3.9 6.2 8 13.1 47.8 80.3 79.4 171.9 91.1 264.4 3.8 29.5 4.9 49.1 5 84 0 36.9 -0.9 53 -5 85.5 -28 224.1 -162.7 418.3 -365.5 526.9 l-9.6 5.1 -2.1 -5.7z"/>
  <path d="M1251 1340.9 c-17 -7.7 -34 -16.2 -34 -17 0 -0.3 0.6 -2.2 1.4 -4.1 1.8 -4.3 7 -30.8 9 -45.8 0.8 -6.3 2 -19.6 2.7 -29.4 l1.1 -18 5.3 -6.5 c4.4 -5.5 22.3 -32.1 30.2 -45 l2.1 -3.5 0.5 41.5 c0.4 45.3 0.7 47.9 6.7 60.4 3.8 8 9.7 15.9 19.4 26.2 5 5.3 7.5 8.7 7 9.5 -0.4 0.7 -5.1 7.2 -10.5 14.4 -8.8 11.8 -10.1 13.1 -14.1 14.3 -2.3 0.7 -7 2.7 -10.3 4.5 l-6 3.2 -10.5 -4.7z"/>
  <path d="M1390 1329.9 c-12.4 -0.4 -25.5 -0.5 -29.1 -0.2 l-6.6 0.5 2.2 -6.8 c2.7 -8 2.5 -7.9 21.2 -15 13 -5 14 -5 25.8 -1.5 10.2 3.1 22.9 5.1 32.1 5.1 11.9 0 21.6 -2.9 36.9 -10.9 l13.2 -6.9 10.4 2.9 c14.5 4 33.3 10.5 32.3 11.2 -0.5 0.3 -4.3 1.5 -8.4 2.6 -4.1 1.2 -14.7 4.6 -23.5 7.6 -8.8 3 -21.4 6.8 -28 8.6 -11.6 3.1 -12.7 3.2 -34 3.4 -12.1 0.1 -32.1 -0.1 -44.5 -0.6z"/>
  <path d="M1140.5 1297.6 c-6.6 -1.3 -15.6 -3.3 -20 -4.4 -6.9 -1.8 -24.2 -5.1 -43.5 -8.2 -7.8 -1.3 -99.4 -1.7 -144.2 -0.6 -22.3 0.5 -37.8 0.5 -37.8 0 0 -0.5 1.1 -8.3 2.4 -17.4 3.5 -24.1 11.1 -45.2 29.5 -83 7.7 -15.7 15.6 -32.4 17.5 -37.1 1.9 -4.7 12 -33 22.5 -63 23.8 -68.3 30 -91 38.1 -138 9.3 -54.2 14 -90.6 12.7 -98.3 -0.5 -3 0 -3.9 4.5 -8.2 6.8 -6.7 30.2 -32.3 37.9 -41.4 24 -28.7 53.4 -73.4 67.4 -102.5 12.8 -26.6 28.8 -62.7 31.9 -72.2 l1.8 -5.3 16.1 8.2 16.1 8.1 14.6 14.6 14.5 14.6 7.7 15 c10.8 21.1 11.3 23 11.2 51 -0.1 25.7 -0.4 27.8 -8.5 50.5 -9.6 26.8 -22.3 52.5 -38.3 77.4 -5.7 8.9 -12.6 19.8 -15.4 24.4 -2.8 4.5 -8.2 11.9 -12 16.5 -15.1 18 -31.5 46.9 -38.2 67.5 -5.5 17.1 -7.3 28.2 -6.6 41.7 0.6 13.4 1.6 17.6 10.5 43.3 9.3 27.1 18.3 43.2 33.6 60 10.5 11.5 24.6 20.6 39 25.2 3.9 1.2 7.3 2.5 7.7 2.9 1.1 1 -26 41.1 -32.5 48 -10.9 11.8 -13.2 19.2 -14.7 47.6 -1.1 21.2 -2.7 34.8 -6.3 53.5 -2.6 13.7 -1.4 13 -19.2 9.6z"/>
  <path d="M1327.9 1254.3 l-3.4 -4.8 -0.6 -45.5 c-0.4 -27.8 -1.1 -47.1 -1.8 -49.5 -0.6 -2.2 -1.1 -4.6 -1.1 -5.2 0 -1.9 5 -1.6 13.9 0.7 4.3 1.1 15.3 3.5 24.5 5.4 16.1 3.3 17.5 3.8 36.4 12.8 24.9 11.9 39.1 19.9 61.9 35.3 10 6.8 24.1 15.9 31.3 20.1 12.4 7.2 15.1 9.2 11.3 8 -5.7 -1.8 -16.9 -2.5 -22.9 -1.6 -8.7 1.4 -14.7 3.8 -28.9 11.5 -14.4 7.8 -15.8 8 -31.7 2.8 -13.9 -4.4 -28 -5.5 -39.1 -2.9 -8.1 1.9 -26.4 8.9 -36.5 14 -3.9 2 -7.8 3.6 -8.5 3.6 -0.8 0 -2.9 -2.1 -4.8 -4.7z"/>
  <path d="M315.6 881.5 c6.4 -30 18.6 -70 30.7 -101.1 28.9 -73.8 68.8 -139.7 122.6 -202.4 11.8 -13.8 59.3 -62 61 -62 1.2 0 -13.7 31 -29.2 60.8 -11.8 22.7 -23 40.3 -87.8 138.5 -32.8 49.6 -36.4 55.8 -73.4 124.2 -24.1 44.5 -24.7 45.4 -23.9 42z"/>
  <path d="M855 408.7 c0 -10 -2.8 -46.9 -4 -52.1 -0.5 -2.2 -0.6 -4.4 -0.1 -4.9 1.8 -1.8 63.5 -12.7 64.7 -11.4 0.9 0.8 -7 14.3 -18.2 31.3 -9.4 14.1 -19 24.6 -36.1 39.2 l-6.3 5.4 0 -7.5z"/>
 </g>
</svg>